<svg xmlns="http://www.w3.org/2000/svg" width="241" height="93" fill="none"><path fill="#AAA" d="M69.219 23.531c-.167-.291.625-1.312 2.375-3.062 1.77-1.771 2.656-3.073 2.656-3.907 0-.604-.104-.968-.313-1.093-.208-.146-.802-.219-1.78-.219-1.417 0-3.397.417-5.938 1.25-2.104.667-5.563 2.156-10.375 4.469-4.813 2.312-8.927 4.458-12.344 6.437-3.854 2.23-8.781 5.417-14.781 9.563-6 4.146-9.709 6.927-11.125 8.343-.521.521-1.563 2.74-3.125 6.657a114.207 114.207 0 0 1-.875 2.187 16.44 16.44 0 0 0-.563 1.657 67.702 67.702 0 0 1-.406 1.312c-.042.167-.042.49 0 .969.042.458.094.74.156.843.084.105.281.365.594.782.313.416.573.718.781.906.209.167.594.51 1.156 1.031 3.48 3.209 7.698 4.99 12.657 5.344 4.979.354 10.968-.688 17.968-3.125 3.188-1.125 5.26-1.77 6.22-1.938.603-.124.968-.135 1.093-.03.146.083.177.364.094.843-.063.438-.344.833-.844 1.188-.48.333-1.406.77-2.781 1.312-7.834 3.104-14.886 4.49-21.157 4.156-6.25-.354-11.333-2.416-15.25-6.187l-2.437-2.313-1.281 3.219C6.74 71.208 4.719 77.145 3.53 81.938c-1.187 4.791-1.27 7.385-.25 7.78.209.063.386.21.531.438.146.23.22.469.22.719 0 .417-.24.698-.72.844-.458.166-.968.166-1.53 0-.542-.146-.917-.427-1.126-.844-.416-.792-.562-2.156-.437-4.094.125-1.937.5-4.073 1.125-6.406.604-2.292 1.625-5.49 3.062-9.594 1.459-4.125 2.646-7.219 3.563-9.281.666-1.646.99-3.458.968-5.438-.062-1.729.188-3.27.75-4.624.584-1.355 1.646-2.97 3.188-4.844.563-.688 1.188-1.646 1.875-2.875a27.443 27.443 0 0 0 1.719-3.657c1.041-2.645 3.01-8.291 5.906-16.937C25.292 14.479 27.167 8.708 28 5.812c.688-2.375 1.24-3.906 1.656-4.593.417-.688.896-.865 1.438-.532.52.334.427 1.782-.282 4.344-.687 2.542-2.677 8.74-5.968 18.594a1184.794 1184.794 0 0 0-3.938 11.938c-1.062 3.27-1.573 4.906-1.531 4.906.083 0 1.302-.865 3.656-2.594 7.063-5.188 14.75-10.083 23.063-14.688 8.312-4.625 15.041-7.74 20.187-9.343 1.938-.604 3.688-.927 5.25-.969 1.563-.063 2.771.135 3.625.594.875.458 1.459 1.083 1.75 1.875.292.791.167 1.77-.375 2.937-.541 1.146-1.469 2.365-2.781 3.657-.98.958-1.896 1.593-2.75 1.906-.854.291-1.448.187-1.781-.313Zm1.966 33.313c.208.52.01 1.073-.594 1.656-.583.583-2.218 1.823-4.906 3.719-3.042 2.166-5.365 3.541-6.969 4.125-1.604.583-3.093.594-4.468.031-1.25-.5-1.907-1.688-1.97-3.563-.062-1.895.48-4.052 1.626-6.468.729-1.542 1.458-2.782 2.187-3.719.75-.958 1.636-1.604 2.657-1.938 1.062-.333 1.916-.145 2.562.563.667.688.906 1.5.719 2.438-.188 1-.886 2.156-2.094 3.468-1.208 1.292-2.25 1.938-3.125 1.938-.688 0-1.135.114-1.344.343-.208.209-.416.823-.625 1.844-.187.98-.073 1.782.344 2.407.333.416.635.645.906.687.271.02.844-.094 1.719-.344 1.188-.333 3.49-1.74 6.906-4.219a94.79 94.79 0 0 1 3.094-2.187c.75-.52 1.375-.885 1.875-1.094.5-.229.844-.302 1.031-.218.188.062.344.24.469.53ZM57.779 54.5c-.75 1.083-.98 1.698-.688 1.844.209.062.573-.146 1.094-.625.792-.75 1.188-1.344 1.188-1.782 0-.562-.188-.75-.563-.562-.313.146-.656.52-1.031 1.125Zm29.685-1.063c.958-.354 1.666-.416 2.125-.187.479.208.583.646.312 1.313-.291.77-1.302 1.312-3.031 1.624-1.708.313-2.865.167-3.469-.437-.27-.27-.479-.375-.625-.313-.333.126-1.26 1.157-2.781 3.094-.396.521-1.198 1.563-2.406 3.125-1.771 2.354-3.021 3.886-3.75 4.594-.709.688-1.386 1.063-2.031 1.125-.605.063-1.032.031-1.282-.094-.25-.146-.458-.437-.625-.875-.479-1.437-.291-4.219.563-8.344.583-2.979 1.291-4.5 2.125-4.562.208 0 .406.094.594.281.208.23.28.677.218 1.344-.041.646-.208 1.75-.5 3.313-.146.729-.27 1.343-.375 1.843-.083.5-.156.98-.218 1.438-.063.437-.105.791-.126 1.062-.02.25-.01.469.032.657.041.166.094.26.156.28.083.022.208-.01.375-.093.167-.104.344-.25.531-.438a56.386 56.386 0 0 0 2.844-3.563c1.02-1.374 2.99-4.01 5.906-7.905l2.907-3.875c.333-.438.562-.667.687-.688.146-.041.396.104.75.438.354.354.51.698.469 1.031-.021.333-.271 1.083-.75 2.25-.688 1.667-.927 2.615-.719 2.844.25.25.948.156 2.094-.282Zm27.154 2.876c.562-.063.958.145 1.187.624.229.48.083 1.032-.437 1.657a75.37 75.37 0 0 1-1.375 1.468c-.5.5-1.344 1.271-2.532 2.313a41.99 41.99 0 0 1-3.562 2.813c-1.188.812-2.594 1.604-4.219 2.374-1.625.771-3.198 1.303-4.719 1.594-2.208.417-4.166.084-5.875-1-1.708-1.104-2.666-2.646-2.875-4.625-.208-2.083-.083-4.26.375-6.531.396-1.917.886-3.302 1.469-4.156.583-.854 1.198-1.073 1.844-.657.291.167.437.563.437 1.188 0 .604-.135.99-.406 1.156-.292.188-.625 1.542-1 4.063-.25 1.604-.375 2.74-.375 3.406.02.646.188 1.344.5 2.094.583 1.416 1.719 2.208 3.406 2.375 1.709.146 3.49-.156 5.344-.906a21.323 21.323 0 0 0 5.156-2.938 68.48 68.48 0 0 0 3.282-2.781 364.73 364.73 0 0 1 2.875-2.563c.708-.604 1.208-.927 1.5-.968Zm-19.032-7.938c-.229.23-.52.344-.875.344-.354 0-.656-.115-.906-.344a1.293 1.293 0 0 1-.344-.906c0-.354.115-.646.344-.875.25-.25.552-.375.906-.375s.646.125.875.375c.25.229.375.52.375.875 0 .354-.125.656-.375.906Zm44.591 8.563c.292-.126.573-.084.844.124.292.209.448.521.469.938.042.396-.125.865-.5 1.406-.563.75-1.646 1.782-3.25 3.094-1.583 1.313-2.656 2.094-3.219 2.344-2.208.916-4.156.958-5.844.125-.77-.375-1.437-1.084-2-2.125-.541-1.042-.927-1.98-1.156-2.813-.229-.854-.364-1.281-.406-1.281-.354 0-.969.458-1.844 1.375a20.118 20.118 0 0 0-2.375 3.031c-1.896 3-3.416 4.604-4.562 4.813-.563.104-.959-.167-1.188-.813-.146-.354.052-2.281.594-5.781.542-3.5 1.083-6.365 1.625-8.594.25-.937.604-1.593 1.062-1.968.459-.376.896-.365 1.313.03.292.292.125 2.188-.5 5.688-.646 3.542-.969 5.386-.969 5.532 0 .083.188-.105.563-.563.25-.292.541-.667.875-1.125a13.895 13.895 0 0 1 3.312-3.219c1.313-.916 2.334-1.323 3.063-1.218.458.062.802.27 1.031.624.229.355.479 1.084.75 2.188.708 2.833 2.01 4.25 3.906 4.25.75 0 1.604-.302 2.563-.906a15.416 15.416 0 0 0 2.531-1.969c.729-.73 1.417-1.427 2.062-2.094.667-.666 1.084-1.031 1.25-1.093Zm67.652 14.374c-.25.105-1.344.25-3.281.438-1.917.167-4.657.583-8.219 1.25-3.563.646-7.271 1.573-11.125 2.781-4.646 1.459-8.896 3.354-12.75 5.688-3.834 2.354-7.115 5.01-9.844 7.969-1.396 1.541-2.312 2.458-2.75 2.75-.417.312-.844.322-1.281.03-.292-.187-.448-.395-.469-.624 0-.23.104-.615.313-1.156.812-2.021 2.552-6.105 5.218-12.25 5.834-13.667 9.75-23.105 11.75-28.313 2.021-5.208 4.021-11.125 6-17.75 1.625-5.458 2.386-8.292 2.282-8.5-.042-.104-.23.094-.563.594l-.062.062c-.438.625-.917.886-1.438.782-.5-.105-.75-.521-.75-1.25 0-.271.208-.834.625-1.688.438-.875.958-1.781 1.563-2.719 1.479-2.458 2.541-4.552 3.187-6.281.729-1.854 1.375-2.781 1.938-2.781.562 0 .947.166 1.156.5.291.458-.729 4.864-3.063 13.219-2.312 8.333-4.51 15.49-6.593 21.468-1.646 4.709-3.771 10.115-6.375 16.219-6.271 14.896-9.407 22.417-9.407 22.563 0 .041.157-.042.469-.25.313-.209.75-.521 1.313-.938a29.833 29.833 0 0 0 1.781-1.313c2.896-2.166 7.114-4.343 12.656-6.53 5.563-2.188 10.094-3.615 13.594-4.282a95.397 95.397 0 0 1 5.906-.938c2.104-.291 3.917-.52 5.438-.687 1.541-.167 2.354-.26 2.437-.281.521-.104.896 0 1.125.312.229.292.26.636.094 1.031-.146.396-.438.688-.875.876Zm9.997-11.687c2.042-2.208 3.261-3 3.656-2.375.125.208.188.552.188 1.031 0 .48-.51 1.313-1.531 2.5a25.903 25.903 0 0 1-3.313 3.282c-1.187.979-2.021 1.468-2.5 1.468-1.312 0-2.166-.562-2.562-1.687-.396-1.125-.313-2.719.25-4.782.666-2.333.427-2.614-.719-.843-.271.416-.583.937-.938 1.562-2.229 4-3.989 6.344-5.281 7.032-.625.354-1.052.541-1.281.562-.208 0-.656-.135-1.344-.406-.729-.292-1.198-.917-1.406-1.875-.208-.98-.208-2.584 0-4.813.479-5.458 1.25-8.968 2.312-10.531.48-.708.959-.823 1.438-.344.396.396.333 1.854-.188 4.375a65.197 65.197 0 0 0-.906 5.157c-.229 1.708-.344 3.052-.344 4.03 0 .96.105 1.49.313 1.594.812 0 2.74-2.708 5.781-8.124 1.375-2.417 2.521-4.167 3.438-5.25.916-1.105 1.729-1.657 2.437-1.657.792 0 1.219.48 1.281 1.438.063.958-.239 2.5-.906 4.625-1.271 4.166-1.76 6.468-1.469 6.906.271.396 1.24-.313 2.907-2.125.208-.23.437-.48.687-.75Zm21.498-4.156c.416-.104.698 0 .843.312.167.313.188.677.063 1.094-.104.417-.292.708-.563.875-.208.125-.531.24-.968.344-.438.104-1.209.343-2.313.718-1.083.376-2.396.896-3.937 1.563-2.271.98-3.802 1.719-4.594 2.219-.771.479-1.458 1.146-2.063 2-.979 1.375-1.979 2.281-3 2.719-1 .416-1.958.343-2.875-.22-.583-.374-1-.833-1.25-1.374-.25-.542-.333-1.073-.25-1.594.084-.542.167-.958.25-1.25.105-.292.209-.531.313-.719.208-.354.49-.698.844-1.031.354-.354.677-.594.968-.719.73-.291 1.094-.802 1.094-1.531.021-.792.531-2.02 1.531-3.688 1.021-1.666 1.938-2.791 2.75-3.374 1.125-.813 2.042-1.25 2.75-1.313.73-.063 1.355.208 1.875.813.313.354.521.635.625.843.125.188.219.552.282 1.094.062.542-.021 1.188-.25 1.938-.104.479-.261.979-.469 1.5-.188.52-.344.927-.469 1.218-.125.292-.187.448-.187.469.021.02.687-.188 2-.625l4.218-1.406c1.521-.5 2.448-.792 2.782-.875Zm-16.5 8.656c.416-.438.666-.73.75-.875.083-.146.093-.27.031-.375-.063-.104-.281-.25-.656-.438-.396-.229-.698-.312-.907-.25-.187.042-.385.26-.593.657-.188.375-.334.75-.438 1.125-.083.375-.104.687-.062.937.062.25.187.375.375.375.312 0 .812-.385 1.5-1.156Zm4.375-6.219c.979-1.687 1.468-2.896 1.468-3.625 0-.479-.052-.75-.156-.812-.104-.063-.364.031-.781.281-.542.354-1.25 1.281-2.125 2.781-.875 1.5-1.313 2.552-1.313 3.157 0 .729.271.958.813.687.646-.313 1.344-1.135 2.094-2.469Z"/></svg>